# xmcd
#
# Track frame offsets:
#	150
#	16403
#	29404
#	43847
#	58888
#	75059
#	88662
#	100812
#	113348
#	131994
#	147958
#	163693
#	176286
#	191609
#	203280
#	215153
#	226327
#	238595
#	251143
#	262586
#	272400
#	283830
#	296325
#	309721
#	321415
#	338161
#
# Disc length: 4725
#
# Revision: 1
# Processed by: cddbd v1.5.1PL0 Copyright (c) Steve Scherf et al.
# Submitted via: dBpowerAMP V4.0
# Normalized: r0:DSETVAR1
#
DISCID=7112731a
DTITLE=Various Artist - Sanctified Soul
DYEAR=1900
DGENRE=Soul
TTITLE0=The Soul Clan - That's How It Feels
TTITLE1=Don Covay and The Goodtimers - I Stole Some Love
TTITLE2=Soul Brothers Six - Can't Live Without You
TTITLE3=James Carr - I'll Put It To You
TTITLE4=Otis Clay - Is It Over?
TTITLE5=Arthur Conley - You Don't Have To See Me
TTITLE6=Fern Kinney - Your Love's Not Reliable
TTITLE7=Jackie Moore - Cover Me
TTITLE8=Sam Dees - Signed, Miss Heroin
TTITLE9=J. P. Robinson - George Jackson
TTITLE10=Percy Wiggins - They Don't Know
TTITLE11=The Mad Lads - You Mean So Much To Me
TTITLE12=Solomon Burke - He'll Have To Go
TTITLE13=Ted Taylor - Feed The Flame
TTITLE14=Judy Clay - The Greatest Love
TTITLE15=Jeff Dale - A Suffering Pain
TTITLE16=Mike Williams and The Tempest Band - Love Have Mercy
TTITLE17=Lee Jackson - Ad For Love
TTITLE18=Rudy Lewis - I've Loved You So Long
TTITLE19=Ben and Spence - Get It Over
TTITLE20=Herman Hitson - You Are Too Much For The Human Heart
TTITLE21=Wilson Pickett - For Better Of Worse
TTITLE22=Roscoe Robinson - Leave You In The Arms (Of Your Other Man)
TTITLE23=Walter Rhodes - Message To My Woman
TTITLE24=Rudy Mockabee - Cheer Up (Daddy's Coming Home)
TTITLE25=Bettye Swann - Time To Say Goodbye
EXTD=
EXTT0=
EXTT1=
EXTT2=
EXTT3=
EXTT4=
EXTT5=
EXTT6=
EXTT7=
EXTT8=
EXTT9=
EXTT10=
EXTT11=
EXTT12=
EXTT13=
EXTT14=
EXTT15=
EXTT16=
EXTT17=
EXTT18=
EXTT19=
EXTT20=
EXTT21=
EXTT22=
EXTT23=
EXTT24=
EXTT25=
PLAYORDER=
